<?xml version="1.0" encoding="UTF-8" standalone="no"?>
<svg
   xmlns:dc="http://purl.org/dc/elements/1.1/"
   xmlns:cc="http://creativecommons.org/ns#"
   xmlns:rdf="http://www.w3.org/1999/02/22-rdf-syntax-ns#"
   xmlns:svg="http://www.w3.org/2000/svg"
   xmlns="http://www.w3.org/2000/svg"
   xmlns:sodipodi="http://sodipodi.sourceforge.net/DTD/sodipodi-0.dtd"
   xmlns:inkscape="http://www.inkscape.org/namespaces/inkscape"
   width="165px"
   height="165px"
   viewBox="0 0 165 165"
   version="1.1"
   id="svg20"
   sodipodi:docname="slack.svg"
   inkscape:version="0.92.2 (30a58d1, 2017-08-07)">
  <metadata
     id="metadata24">
    <rdf:RDF>
      <cc:Work
         rdf:about="">
        <dc:format>image/svg+xml</dc:format>
        <dc:type
           rdf:resource="http://purl.org/dc/dcmitype/StillImage" />
        <dc:title>material icons logo</dc:title>
      </cc:Work>
    </rdf:RDF>
  </metadata>
  <sodipodi:namedview
     pagecolor="#ffffff"
     bordercolor="#666666"
     borderopacity="1"
     objecttolerance="10"
     gridtolerance="10"
     guidetolerance="10"
     inkscape:pageopacity="0"
     inkscape:pageshadow="2"
     inkscape:window-width="1190"
     inkscape:window-height="795"
     id="namedview22"
     showgrid="false"
     inkscape:zoom="1.430303"
     inkscape:cx="222.33051"
     inkscape:cy="54.533898"
     inkscape:window-x="216"
     inkscape:window-y="46"
     inkscape:window-maximized="0"
     inkscape:current-layer="svg20" />
  <!-- Generator: Sketch 47 (45396) - http://www.bohemiancoding.com/sketch -->
  <title
     id="title2">material icons logo</title>
  <desc
     id="desc4">Created with Sketch.</desc>
  <defs
     id="defs6" />
  <g
     id="g3777"
     transform="matrix(0.62875577,0,0,0.61782628,1.8748484,3.5670064)">
    <path
       id="path3745"
       d="M 165.964,15.838 C 162.074,3.863 149.212,-2.69 137.239,1.202 125.264,5.092 118.711,17.954 122.603,29.927 l 58.947,181.365 c 4.048,11.187 16.132,17.473 27.732,14.135 12.1,-3.483 19.475,-16.334 15.614,-28.217 L 165.964,15.838"
       inkscape:connector-curvature="0"
       style="fill:#dfa22f" />
    <path
       id="path3747"
       d="M 74.626,45.516 C 70.734,33.542 57.873,26.989 45.9,30.879 33.924,34.77 27.37,47.631 31.263,59.606 l 58.948,181.366 c 4.047,11.186 16.132,17.473 27.732,14.132 12.099,-3.481 19.474,-16.332 15.613,-28.217 L 74.626,45.516"
       inkscape:connector-curvature="0"
       style="fill:#3cb187" />
    <path
       id="path3749"
       d="m 240.162,166.045 c 11.975,-3.89 18.526,-16.75 14.636,-28.726 -3.89,-11.973 -16.752,-18.527 -28.725,-14.636 L 44.708,181.632 c -11.187,4.046 -17.473,16.13 -14.135,27.73 3.483,12.099 16.334,19.475 28.217,15.614 l 181.372,-58.93"
       inkscape:connector-curvature="0"
       style="fill:#ce1e5b" />
    <path
       id="path3751"
       d="m 82.508,217.27 43.347,-14.084 -14.086,-43.352 -43.35,14.09 14.089,43.347"
       inkscape:connector-curvature="0"
       style="fill:#392538" />
    <path
       id="path3753"
       d="m 173.847,187.591 c 16.388,-5.323 31.62,-10.273 43.348,-14.084 l -14.088,-43.36 -43.35,14.09 14.09,43.354"
       inkscape:connector-curvature="0"
       style="fill:#bb242a" />
    <path
       id="path3755"
       d="m 210.484,74.706 c 11.974,-3.89 18.527,-16.751 14.637,-28.727 -3.89,-11.973 -16.752,-18.526 -28.727,-14.636 L 15.028,90.293 c -11.186,4.044 -17.473,16.129 -14.132,27.729 3.481,12.098 16.332,19.474 28.217,15.613 l 181.371,-58.93"
       inkscape:connector-curvature="0"
       style="fill:#72c5cd" />
    <path
       id="path3757"
       d="M 52.822,125.933 C 64.627,122.097 79.847,117.151 96.176,111.847 90.853,95.457 85.903,80.225 82.092,68.495 l -43.36,14.092 14.09,43.346"
       inkscape:connector-curvature="0"
       style="fill:#248c73" />
    <path
       id="path3759"
       d="M 144.16,96.256 187.516,82.168 A 546179.21,546179.21 0 0 0 173.427,38.808 L 130.07,52.9 144.16,96.256"
       inkscape:connector-curvature="0"
       style="fill:#62803a" />
  </g>
</svg>
